<svg width="15" height="15" viewBox="0 0 15 15" fill="none" xmlns="http://www.w3.org/2000/svg">
<path fill-rule="evenodd" clip-rule="evenodd" d="M10.0679 0C10.3551 0 10.5882 0.223131 10.5882 0.49806L10.5885 1.06107C11.6013 1.12755 12.4425 1.45968 13.0378 2.03082C13.6878 2.65572 14.0297 3.55422 14.0263 4.63202V10.6904C14.0263 12.9031 12.5585 14.2778 10.1966 14.2778H4.32967C1.96777 14.2778 0.5 12.8839 0.5 10.64V4.63069C0.5 2.54362 1.80896 1.20394 3.94378 1.0613L3.9442 0.49806C3.9442 0.223131 4.17727 0 4.46444 0C4.75162 0 4.98468 0.223131 4.98468 0.49806L4.98448 1.04858H9.54734L9.54768 0.49806C9.54768 0.223131 9.78075 0 10.0679 0ZM12.9858 5.91297H1.54048V10.64C1.54048 12.344 2.53102 13.2817 4.32967 13.2817H10.1966C11.9952 13.2817 12.9858 12.3612 12.9858 10.6904L12.9858 5.91297ZM10.3507 10.0916C10.6379 10.0916 10.871 10.3147 10.871 10.5896C10.871 10.8645 10.6379 11.0877 10.3507 11.0877C10.0636 11.0877 9.82771 10.8645 9.82771 10.5896C9.82771 10.3147 10.0573 10.0916 10.3445 10.0916H10.3507ZM7.27263 10.0916C7.55981 10.0916 7.79288 10.3147 7.79288 10.5896C7.79288 10.8645 7.55981 11.0877 7.27263 11.0877C6.98546 11.0877 6.74962 10.8645 6.74962 10.5896C6.74962 10.3147 6.97922 10.0916 7.26639 10.0916H7.27263ZM4.18809 10.0916C4.47526 10.0916 4.70833 10.3147 4.70833 10.5896C4.70833 10.8645 4.47526 11.0877 4.18809 11.0877C3.90092 11.0877 3.66438 10.8645 3.66438 10.5896C3.66438 10.3147 3.89468 10.0916 4.18185 10.0916H4.18809ZM10.3507 7.51048C10.6379 7.51048 10.871 7.73361 10.871 8.00853C10.871 8.28346 10.6379 8.50659 10.3507 8.50659C10.0636 8.50659 9.82771 8.28346 9.82771 8.00853C9.82771 7.73361 10.0573 7.51048 10.3445 7.51048H10.3507ZM7.27263 7.51048C7.55981 7.51048 7.79288 7.73361 7.79288 8.00853C7.79288 8.28346 7.55981 8.50659 7.27263 8.50659C6.98546 8.50659 6.74962 8.28346 6.74962 8.00853C6.74962 7.73361 6.97922 7.51048 7.26639 7.51048H7.27263ZM4.18809 7.51048C4.47526 7.51048 4.70833 7.73361 4.70833 8.00853C4.70833 8.28346 4.47526 8.50659 4.18809 8.50659C3.90092 8.50659 3.66438 8.28346 3.66438 8.00853C3.66438 7.73361 3.89468 7.51048 4.18185 7.51048H4.18809ZM9.54734 2.0447H4.98448L4.98468 2.68355C4.98468 2.95847 4.75162 3.18161 4.46444 3.18161C4.17727 3.18161 3.9442 2.95847 3.9442 2.68355L3.94383 2.05978C2.38989 2.18475 1.54048 3.08655 1.54048 4.63069V4.91685H12.9858L12.9858 4.63069C12.9886 3.81056 12.7583 3.17304 12.3011 2.73475C11.8999 2.34945 11.3133 2.11934 10.5888 2.0601L10.5882 2.68355C10.5882 2.95847 10.3551 3.18161 10.0679 3.18161C9.78075 3.18161 9.54768 2.95847 9.54768 2.68355L9.54734 2.0447Z" fill="#8F95B2"/>
</svg>
