<svg width="12" height="12" viewBox="0 0 12 12" fill="none" xmlns="http://www.w3.org/2000/svg">
<path fill-rule="evenodd" clip-rule="evenodd" d="M5.76692 0C2.58194 0 0 2.52492 0 5.63956C0 8.7542 2.58194 11.2791 5.76692 11.2791C7.1289 11.2791 8.38061 10.8174 9.36729 10.0453L11.2423 11.8742L11.2922 11.9161C11.4662 12.0421 11.713 12.0278 11.8704 11.8734C12.0436 11.7035 12.0433 11.4285 11.8696 11.2591L10.0167 9.45184C10.9588 8.44803 11.5338 7.10946 11.5338 5.63956C11.5338 2.52492 8.95191 0 5.76692 0ZM5.76616 0.86875C8.46057 0.86875 10.6448 3.00476 10.6448 5.63966C10.6448 8.27457 8.46057 10.4106 5.76616 10.4106C3.07175 10.4106 0.8875 8.27457 0.8875 5.63966C0.8875 3.00476 3.07175 0.86875 5.76616 0.86875Z" fill="#9C9996"/>
</svg>
