<svg width="12" height="13" viewBox="0 0 12 13" fill="none" xmlns="http://www.w3.org/2000/svg">
<path d="M6 0C5.34073 0 4.69626 0.200641 4.1481 0.576551C3.59994 0.952461 3.17269 1.48676 2.9204 2.11187C2.66811 2.73699 2.6021 3.42485 2.73072 4.08847C2.85933 4.75209 3.1768 5.36166 3.64298 5.8401C4.10915 6.31855 4.7031 6.64437 5.3497 6.77637C5.9963 6.90837 6.66652 6.84063 7.27561 6.58169C7.8847 6.32276 8.4053 5.88428 8.77157 5.32169C9.13784 4.7591 9.33333 4.09767 9.33333 3.42105C9.33333 2.51373 8.98214 1.64358 8.35702 1.002C7.7319 0.360431 6.88406 0 6 0V0ZM6 5.47368C5.60444 5.47368 5.21776 5.3533 4.88886 5.12775C4.55996 4.90221 4.30362 4.58163 4.15224 4.20656C4.00087 3.83149 3.96126 3.41878 4.03843 3.0206C4.1156 2.62243 4.30608 2.25669 4.58579 1.96962C4.86549 1.68256 5.22186 1.48706 5.60982 1.40786C5.99778 1.32866 6.39991 1.36931 6.76537 1.52467C7.13082 1.68003 7.44318 1.94312 7.66294 2.28067C7.8827 2.61823 8 3.01508 8 3.42105C8 3.96544 7.78929 4.48754 7.41421 4.87248C7.03914 5.25743 6.53043 5.47368 6 5.47368V5.47368ZM12 13V12.3158C12 11.0455 11.5083 9.82732 10.6332 8.92912C9.758 8.03092 8.57101 7.52632 7.33333 7.52632H4.66667C3.42899 7.52632 2.242 8.03092 1.36683 8.92912C0.491665 9.82732 0 11.0455 0 12.3158V13H1.33333V12.3158C1.33333 11.4085 1.68452 10.5383 2.30964 9.89674C2.93477 9.25517 3.78261 8.89474 4.66667 8.89474H7.33333C8.21739 8.89474 9.06523 9.25517 9.69036 9.89674C10.3155 10.5383 10.6667 11.4085 10.6667 12.3158V13H12Z" fill="#8F95B2"/>
</svg>
